<svg width="978" height="422" viewBox="0 0 978 422" fill="none" xmlns="http://www.w3.org/2000/svg">
<path d="M190.286 299.337V120.217H250.809C264.802 120.217 276.289 122.608 285.268 127.389C294.247 132.112 300.894 138.613 305.209 146.893C309.524 155.172 311.681 164.589 311.681 175.142C311.681 185.696 309.524 195.054 305.209 203.217C300.894 211.38 294.277 217.794 285.356 222.459C276.435 227.065 265.035 229.368 251.158 229.368H202.18V209.777H250.459C260.021 209.777 267.718 208.378 273.548 205.579C279.437 202.78 283.694 198.815 286.318 193.684C289 188.495 290.341 182.314 290.341 175.142C290.341 167.971 289 161.703 286.318 156.338C283.635 150.974 279.35 146.834 273.461 143.919C267.572 140.945 259.788 139.458 250.109 139.458H211.976V299.337H190.286ZM274.598 218.873L318.678 299.337H293.489L250.109 218.873H274.598Z" fill="#FDBFCA"/>
<path d="M334.079 299.337H311.339L377.11 120.217H399.5L465.27 299.337H442.53L389.004 148.554H387.605L334.079 299.337ZM342.475 229.368H434.134V248.61H342.475V229.368Z" fill="#FDBFCA"/>
<path d="M479.926 120.217H505.814L566.687 268.9H568.786L629.659 120.217H655.547V299.337H635.256V163.248H633.507L577.532 299.337H557.941L501.966 163.248H500.217V299.337H479.926V120.217Z" fill="#FDBFCA"/>
<path d="M671.949 299.337V120.217H732.472C746.524 120.217 758.01 122.753 766.931 127.826C775.911 132.841 782.558 139.633 786.872 148.204C791.187 156.776 793.345 166.338 793.345 176.892C793.345 187.445 791.187 197.037 786.872 205.666C782.616 214.296 776.027 221.176 767.106 226.307C758.185 231.38 746.757 233.916 732.822 233.916H689.441V214.675H732.122C741.743 214.675 749.468 213.013 755.299 209.689C761.13 206.366 765.357 201.876 767.981 196.22C770.663 190.506 772.004 184.063 772.004 176.892C772.004 169.72 770.663 163.306 767.981 157.65C765.357 151.994 761.101 147.563 755.212 144.356C749.323 141.091 741.509 139.458 731.772 139.458H693.639V299.337H671.949Z" fill="#FDBFCA"/>
</svg>
